<?xml version="1.0" encoding="utf-8"?>
<!-- Generator: Adobe Illustrator 16.0.1, SVG Export Plug-In . SVG Version: 6.00 Build 0)  -->
<!DOCTYPE svg PUBLIC "-//W3C//DTD SVG 1.0//EN" "http://www.w3.org/TR/2001/REC-SVG-20010904/DTD/svg10.dtd">
<svg version="1.0" id="Layer_1" xmlns="http://www.w3.org/2000/svg" xmlns:xlink="http://www.w3.org/1999/xlink" x="0px" y="0px"
	 width="100px" height="100px" viewBox="0 0 100 100" enable-background="new 0 0 100 100" xml:space="preserve">
<path fill="#6699CC" d="M83.272,63.231l-11.928-2.851c-1.07,2.16-2.53,4.168-4.338,5.983c-9.129,9.014-23.943,9.014-33.099,0
	c-9.128-9.04-9.128-23.659,0-32.667c7.874-7.788,19.974-8.835,29.017-3.207l-7.702,7.607L85,44.402L78.607,15l-7.059,6.972
	c-13.877-10.179-33.565-9.101-46.16,3.325c-13.853,13.647-13.853,35.787,0,49.469c13.825,13.644,36.285,13.644,50.136,0
	C78.955,71.35,81.549,67.444,83.272,63.231z"/>
</svg>
