<?xml version="1.0" encoding="utf-8"?>
<!-- Generator: Adobe Illustrator 16.0.1, SVG Export Plug-In . SVG Version: 6.00 Build 0)  -->
<!DOCTYPE svg PUBLIC "-//W3C//DTD SVG 1.0//EN" "http://www.w3.org/TR/2001/REC-SVG-20010904/DTD/svg10.dtd">
<svg version="1.0" id="Layer_1" xmlns="http://www.w3.org/2000/svg" xmlns:xlink="http://www.w3.org/1999/xlink" x="0px" y="0px"
	 width="100px" height="100px" viewBox="0 0 100 100" enable-background="new 0 0 100 100" xml:space="preserve">
<path fill="#6699CC" d="M97.539,68.914L80.5,64.834c-1.538,3.078-3.621,5.955-6.204,8.539c-13.04,12.875-34.207,12.875-47.289,0
	c-13.04-12.914-13.04-33.79,0-46.664c11.25-11.127,28.541-12.627,41.454-4.584L57.464,32.999L100,42L90.875,0L80.793,9.959
	c-19.83-14.543-47.952-13-65.951,4.748c-19.789,19.5-19.789,51.123,0,70.666c19.749,19.502,51.829,19.502,71.619,0
	C91.375,80.498,95.082,74.916,97.539,68.914z"/>
</svg>
