<?xml version="1.0" encoding="utf-8"?>
<!-- Generator: Adobe Illustrator 16.0.4, SVG Export Plug-In . SVG Version: 6.00 Build 0)  -->
<!DOCTYPE svg PUBLIC "-//W3C//DTD SVG 1.0//EN" "http://www.w3.org/TR/2001/REC-SVG-20010904/DTD/svg10.dtd">
<svg version="1.0" id="Layer_1" xmlns="http://www.w3.org/2000/svg" xmlns:xlink="http://www.w3.org/1999/xlink" x="0px" y="0px"
	 width="142.875px" height="57.75px" viewBox="0 0 142.875 57.75" enable-background="new 0 0 142.875 57.75" xml:space="preserve">
<g>
	<g>
		<polygon fill-rule="evenodd" clip-rule="evenodd" fill="#FFFFFF" points="19.155,52.895 10.925,49.995 10.925,38.155 
			19.155,40.905 		"/>
		<polygon fill-rule="evenodd" clip-rule="evenodd" fill="#FFFFFF" points="20.665,52.895 28.895,49.995 28.895,38.155 
			20.665,40.905 		"/>
		<polygon fill-rule="evenodd" clip-rule="evenodd" fill="#FFFFFF" points="11.765,37.265 20.095,34.965 27.825,37.415 
			20.095,39.985 		"/>
	</g>
	<g>
		<polygon fill-rule="evenodd" clip-rule="evenodd" fill="#FFFFFF" points="9.355,36.355 1.125,33.455 1.125,21.605 9.355,24.365 		
			"/>
		<polygon fill-rule="evenodd" clip-rule="evenodd" fill="#FFFFFF" points="10.865,36.355 19.095,33.455 19.095,21.605 
			10.865,24.365 		"/>
		<polygon fill-rule="evenodd" clip-rule="evenodd" fill="#FFFFFF" points="1.975,20.725 10.305,18.425 18.025,20.865 
			10.305,23.445 		"/>
	</g>
	<g>
		<polygon fill-rule="evenodd" clip-rule="evenodd" fill="#FFFFFF" points="28.555,36.355 20.325,33.455 20.325,21.605 
			28.555,24.365 		"/>
		<polygon fill-rule="evenodd" clip-rule="evenodd" fill="#FFFFFF" points="30.065,36.355 38.295,33.455 38.295,21.605 
			30.065,24.365 		"/>
		<polygon fill-rule="evenodd" clip-rule="evenodd" fill="#FFFFFF" points="21.175,20.725 29.505,18.425 37.225,20.865 
			29.505,23.445 		"/>
	</g>
	<g>
		<polygon fill-rule="evenodd" clip-rule="evenodd" fill="#FFFFFF" points="38.355,19.805 30.125,16.905 30.125,5.065 38.355,7.815 
					"/>
		<polygon fill-rule="evenodd" clip-rule="evenodd" fill="#FFFFFF" points="39.865,19.805 48.095,16.905 48.095,5.065 39.865,7.815 
					"/>
		<polygon fill-rule="evenodd" clip-rule="evenodd" fill="#FFFFFF" points="30.975,4.175 39.305,1.875 47.025,4.325 39.305,6.895 		
			"/>
	</g>
	<g>
		<polygon fill-rule="evenodd" clip-rule="evenodd" fill="#FFFFFF" points="57.565,19.805 49.335,16.905 49.335,5.065 57.565,7.815 
					"/>
		<polygon fill-rule="evenodd" clip-rule="evenodd" fill="#FFFFFF" points="59.075,19.805 67.305,16.905 67.305,5.065 59.075,7.815 
					"/>
		<polygon fill-rule="evenodd" clip-rule="evenodd" fill="#FFFFFF" points="50.175,4.175 58.505,1.875 66.235,4.325 58.505,6.895 		
			"/>
	</g>
	<g>
		<polygon fill-rule="evenodd" clip-rule="evenodd" fill="#FFFFFF" points="53.375,45.185 50.615,54.615 49.405,54.615 
			47.255,47.605 45.285,54.615 44.055,54.615 41.185,45.185 42.675,45.185 44.765,52.215 46.755,45.185 47.855,45.185 
			50.015,52.235 52.165,45.185 		"/>
		<path fill-rule="evenodd" clip-rule="evenodd" fill="#FFFFFF" d="M60.945,48.935c-0.02-0.53-0.1-1-0.27-1.41
			c-0.16-0.41-0.44-0.76-0.83-1.05c-0.4-0.29-0.87-0.44-1.42-0.44c-0.74,0-1.37,0.26-1.88,0.79c-0.52,0.52-0.81,1.22-0.87,2.11
			H60.945z M61.025,51.795l1.39,0.29c-0.25,0.8-0.75,1.47-1.48,2c-0.74,0.53-1.6,0.79-2.59,0.79c-1.31,0-2.37-0.45-3.18-1.36
			c-0.81-0.91-1.22-2.09-1.22-3.57c0-1.5,0.42-2.71,1.26-3.64c0.85-0.92,1.9-1.38,3.18-1.38c1.25,0,2.26,0.42,3.02,1.27
			c0.76,0.86,1.15,2.13,1.17,3.83h-6.97c0,1.42,0.3,2.39,0.91,2.88c0.61,0.5,1.25,0.75,1.93,0.75
			C59.665,53.655,60.525,53.035,61.025,51.795z"/>
		<path fill-rule="evenodd" clip-rule="evenodd" fill="#FFFFFF" d="M66.035,50.915c0.07,0.97,0.38,1.67,0.91,2.11
			c0.54,0.44,1.1,0.65,1.7,0.65c0.76,0,1.37-0.32,1.83-0.97c0.47-0.65,0.7-1.53,0.7-2.66c0-1.21-0.22-2.17-0.67-2.86
			c-0.45-0.7-1.08-1.05-1.87-1.05c-0.63,0-1.19,0.25-1.7,0.75c-0.5,0.49-0.8,1.13-0.9,1.91V50.915z M65.265,54.615h-0.72v-12.73
			h1.49v4.87c0.69-1.22,1.63-1.83,2.83-1.83c1.1,0,2.02,0.42,2.76,1.28c0.75,0.85,1.12,2.09,1.12,3.72c0,1.4-0.37,2.57-1.1,3.52
			c-0.73,0.95-1.68,1.43-2.85,1.43c-1.3,0-2.3-0.61-3-1.82L65.265,54.615z"/>
		<path fill-rule="evenodd" clip-rule="evenodd" fill="#FFFFFF" d="M76.555,52.165l1.43-0.29c0.32,1.19,1.32,1.78,3,1.78
			c0.63,0,1.15-0.13,1.58-0.41c0.43-0.27,0.65-0.66,0.65-1.15c0-0.74-0.55-1.21-1.65-1.41l-2.02-0.38
			c-0.79-0.15-1.42-0.44-1.89-0.87c-0.47-0.44-0.7-1.02-0.7-1.73c0-0.79,0.32-1.45,0.96-1.99c0.64-0.53,1.5-0.79,2.58-0.79
			c2.08,0,3.37,0.8,3.86,2.39l-1.37,0.29c-0.39-0.98-1.2-1.47-2.42-1.47c-0.61,0-1.11,0.13-1.5,0.37c-0.39,0.25-0.58,0.59-0.58,1.03
			c0,0.69,0.49,1.13,1.49,1.31l1.87,0.34c1.96,0.34,2.94,1.28,2.94,2.79c0,0.87-0.37,1.57-1.1,2.1c-0.73,0.53-1.7,0.8-2.91,0.8
			C78.505,54.875,77.095,53.975,76.555,52.165z"/>
		<path fill-rule="evenodd" clip-rule="evenodd" fill="#FFFFFF" d="M92.655,48.935c-0.01-0.53-0.1-1-0.26-1.41
			c-0.17-0.41-0.45-0.76-0.84-1.05c-0.39-0.29-0.86-0.44-1.41-0.44c-0.74,0-1.37,0.26-1.89,0.79c-0.51,0.52-0.8,1.22-0.86,2.11
			H92.655z M92.735,51.795l1.39,0.29c-0.25,0.8-0.74,1.47-1.48,2c-0.73,0.53-1.59,0.79-2.59,0.79c-1.31,0-2.37-0.45-3.18-1.36
			c-0.81-0.91-1.21-2.09-1.21-3.57c0-1.5,0.42-2.71,1.26-3.64c0.84-0.92,1.9-1.38,3.17-1.38c1.25,0,2.26,0.42,3.02,1.27
			c0.77,0.86,1.16,2.13,1.18,3.83h-6.97c0,1.42,0.3,2.39,0.91,2.88c0.6,0.5,1.25,0.75,1.92,0.75
			C91.375,53.655,92.235,53.035,92.735,51.795z"/>
		<path fill-rule="evenodd" clip-rule="evenodd" fill="#FFFFFF" d="M97.395,54.615h-1.49v-9.43h1.31v2.2
			c0.46-1.03,0.92-1.7,1.39-2.01c0.46-0.3,0.94-0.45,1.43-0.45c0.15,0,0.35,0.01,0.59,0.03v1.4h-0.31c-0.82,0-1.5,0.3-2.04,0.9
			c-0.55,0.6-0.84,1.39-0.88,2.37V54.615z"/>
		<polygon fill-rule="evenodd" clip-rule="evenodd" fill="#FFFFFF" points="109.915,45.185 106.595,54.615 105.045,54.615 
			101.625,45.185 103.275,45.185 105.945,52.845 108.585,45.185 		"/>
		<path fill-rule="evenodd" clip-rule="evenodd" fill="#FFFFFF" d="M112.675,45.185v9.43h-1.49v-9.43H112.675z M112.715,41.885v1.62
			h-1.6v-1.62H112.715z"/>
		<path fill-rule="evenodd" clip-rule="evenodd" fill="#FFFFFF" d="M120.495,51.315l1.34,0.23c-0.19,1.04-0.61,1.86-1.26,2.45
			c-0.65,0.59-1.47,0.88-2.44,0.88c-1.32,0-2.33-0.48-3.03-1.44c-0.69-0.96-1.04-2.13-1.04-3.51c0-1.44,0.37-2.63,1.1-3.58
			c0.73-0.95,1.73-1.42,2.99-1.42c1.04,0,1.88,0.3,2.51,0.92c0.63,0.61,1.02,1.41,1.17,2.38l-1.34,0.25
			c-0.25-1.56-1.02-2.34-2.3-2.34c-0.82,0-1.45,0.35-1.9,1.04c-0.44,0.68-0.66,1.57-0.66,2.67c0,1.2,0.22,2.14,0.66,2.81
			c0.44,0.67,1.06,1,1.85,1C119.385,53.655,120.165,52.875,120.495,51.315z"/>
		<path fill-rule="evenodd" clip-rule="evenodd" fill="#FFFFFF" d="M130.195,48.935c-0.01-0.53-0.1-1-0.26-1.41
			c-0.17-0.41-0.45-0.76-0.84-1.05c-0.39-0.29-0.86-0.44-1.41-0.44c-0.74,0-1.37,0.26-1.89,0.79c-0.51,0.52-0.8,1.22-0.86,2.11
			H130.195z M130.275,51.795l1.39,0.29c-0.25,0.8-0.74,1.47-1.48,2c-0.73,0.53-1.59,0.79-2.59,0.79c-1.31,0-2.37-0.45-3.18-1.36
			c-0.81-0.91-1.21-2.09-1.21-3.57c0-1.5,0.42-2.71,1.26-3.64c0.84-0.92,1.9-1.38,3.17-1.38c1.25,0,2.26,0.42,3.02,1.27
			c0.77,0.86,1.16,2.13,1.18,3.83h-6.97c0,1.42,0.3,2.39,0.91,2.88c0.6,0.5,1.25,0.75,1.92,0.75
			C128.915,53.655,129.775,53.035,130.275,51.795z"/>
		<path fill-rule="evenodd" clip-rule="evenodd" fill="#FFFFFF" d="M132.675,52.165l1.43-0.29c0.32,1.19,1.32,1.78,3,1.78
			c0.63,0,1.15-0.13,1.58-0.41c0.43-0.27,0.65-0.66,0.65-1.15c0-0.74-0.55-1.21-1.65-1.41l-2.02-0.38
			c-0.79-0.15-1.42-0.44-1.89-0.87c-0.47-0.44-0.7-1.02-0.7-1.73c0-0.79,0.32-1.45,0.96-1.99c0.63-0.53,1.5-0.79,2.58-0.79
			c2.08,0,3.37,0.8,3.86,2.39l-1.37,0.29c-0.39-0.98-1.2-1.47-2.42-1.47c-0.61,0-1.11,0.13-1.5,0.37c-0.39,0.25-0.58,0.59-0.58,1.03
			c0,0.69,0.49,1.13,1.49,1.31l1.87,0.34c1.96,0.34,2.94,1.28,2.94,2.79c0,0.87-0.37,1.57-1.1,2.1c-0.73,0.53-1.7,0.8-2.91,0.8
			C134.625,54.875,133.215,53.975,132.675,52.165z"/>
	</g>
	<g>
		<path fill-rule="evenodd" clip-rule="evenodd" fill="#FFFFFF" d="M98.955,25.025v-2.26c0-0.35,0.26-0.58,0.58-0.57l10.34-0.01
			c0.33,0,0.6,0.24,0.6,0.58v1.94c-0.01,0.32-0.29,0.75-0.78,1.43l-5.36,7.5c1.99-0.04,4.09,0.25,5.9,1.25
			c0.41,0.22,0.52,0.55,0.55,0.88v2.42c0,0.33-0.37,0.72-0.76,0.52c-3.19-1.64-7.41-1.82-10.93,0.02c-0.36,0.18-0.73-0.2-0.73-0.53
			v-2.3c0-0.36,0-0.99,0.38-1.55l6.21-8.74l-5.41-0.01C99.215,25.595,98.955,25.365,98.955,25.025z"/>
		<path fill-rule="evenodd" clip-rule="evenodd" fill="#FFFFFF" d="M61.945,39.175h-3.14c-0.3-0.02-0.54-0.24-0.57-0.52l0.01-15.85
			c0-0.32,0.27-0.57,0.6-0.57h2.93c0.31,0.01,0.55,0.24,0.57,0.53v2.07h0.06c0.77-2,2.21-2.94,4.14-2.94c1.97,0,3.2,0.94,4.09,2.94
			c0.76-2,2.49-2.94,4.34-2.94c1.32,0,2.76,0.54,3.64,1.74c1,1.33,0.8,3.27,0.8,4.97l-0.01,10c0,0.32-0.27,0.57-0.6,0.57h-3.15
			c-0.31-0.02-0.56-0.26-0.56-0.57v-8.4c0-0.67,0.06-2.34-0.09-2.97c-0.23-1.07-0.94-1.37-1.85-1.37c-0.76,0-1.56,0.5-1.88,1.3
			c-0.32,0.8-0.29,2.14-0.29,3.04v8.4c0,0.32-0.27,0.57-0.61,0.57h-3.14c-0.32-0.02-0.57-0.26-0.57-0.57v-8.4
			c0-1.77,0.29-4.37-1.94-4.37c-2.26,0-2.17,2.53-2.17,4.37v8.4C62.555,38.925,62.285,39.175,61.945,39.175z"/>
		<path fill-rule="evenodd" clip-rule="evenodd" fill="#FFFFFF" d="M118.095,25.545c-2.3,0-2.45,3.1-2.45,5.03
			c0,1.94-0.02,5.67,2.42,5.67c2.42,0,2.54-2.93,2.54-4.97c0-1.33-0.06-2.93-0.47-4.2C119.785,25.975,119.085,25.545,118.095,25.545
			z M118.065,21.895c4.63,0,7.14,3.94,7.14,8.94c0,4.84-2.77,8.68-7.14,8.68c-4.54,0-7.02-3.94-7.02-8.84
			C111.045,25.735,113.555,21.895,118.065,21.895z"/>
		<path fill-rule="evenodd" clip-rule="evenodd" fill="#FFFFFF" d="M131.905,39.175h-3.13c-0.32-0.02-0.57-0.26-0.57-0.57v-15.86
			c0.03-0.29,0.29-0.51,0.6-0.51h2.92c0.28,0.01,0.5,0.19,0.56,0.44v2.43h0.06c0.88-2.17,2.11-3.21,4.29-3.21
			c1.41,0,2.79,0.5,3.67,1.87c0.82,1.27,0.82,3.4,0.82,4.94v9.97c-0.04,0.28-0.29,0.5-0.6,0.5h-3.16c-0.29-0.02-0.52-0.23-0.56-0.5
			v-8.6c0-1.74,0.21-4.27-1.96-4.27c-0.77,0-1.47,0.5-1.82,1.26c-0.44,0.97-0.5,1.94-0.5,3.01v8.53
			C132.515,38.925,132.245,39.175,131.905,39.175z"/>
		<path fill-rule="evenodd" clip-rule="evenodd" fill="#FFFFFF" d="M94.235,39.135c-0.21,0.19-0.51,0.2-0.74,0.07
			c-1.05-0.85-1.23-1.24-1.8-2.05c-1.73,1.72-2.96,2.24-5.19,2.24c-2.65,0-4.71-1.6-4.71-4.81c0-2.51,1.38-4.22,3.35-5.05
			c1.71-0.74,4.1-0.87,5.92-1.07v-0.4c0-0.74,0.06-1.61-0.38-2.24c-0.39-0.57-1.12-0.8-1.77-0.8c-1.2,0-2.26,0.6-2.53,1.85
			c-0.05,0.28-0.26,0.55-0.54,0.57l-3.05-0.33c-0.26-0.05-0.55-0.26-0.47-0.64c0.7-3.63,4.04-4.73,7.03-4.73
			c1.53,0,3.53,0.4,4.74,1.54c1.53,1.4,1.38,3.27,1.38,5.31v4.81c0,1.45,0.62,2.09,1.19,2.87c0.2,0.28,0.25,0.61-0.01,0.82
			c-0.64,0.53-1.78,1.5-2.41,2.05L94.235,39.135z M91.065,31.605c0,1.21,0.03,2.21-0.59,3.28c-0.5,0.87-1.29,1.4-2.18,1.4
			c-1.2,0-1.91-0.9-1.91-2.24c0-2.63,2.4-3.11,4.68-3.11V31.605z"/>
		<path fill-rule="evenodd" clip-rule="evenodd" fill="#FFFFFF" d="M53.355,39.135c-0.21,0.19-0.51,0.2-0.74,0.07
			c-1.05-0.85-1.23-1.24-1.81-2.05c-1.72,1.72-2.95,2.24-5.18,2.24c-2.65,0-4.71-1.6-4.71-4.81c0-2.51,1.38-4.22,3.35-5.05
			c1.71-0.74,4.09-0.87,5.92-1.07v-0.4c0-0.74,0.06-1.61-0.38-2.24c-0.39-0.57-1.12-0.8-1.77-0.8c-1.2,0-2.27,0.6-2.53,1.85
			c-0.05,0.28-0.26,0.55-0.54,0.57l-3.05-0.33c-0.26-0.05-0.55-0.26-0.47-0.64c0.7-3.63,4.04-4.73,7.03-4.73
			c1.53,0,3.53,0.4,4.74,1.54c1.53,1.4,1.38,3.27,1.38,5.31v4.81c0,1.45,0.62,2.09,1.19,2.87c0.2,0.28,0.25,0.61-0.01,0.82
			c-0.64,0.53-1.78,1.5-2.41,2.05L53.355,39.135z M50.185,31.605c0,1.21,0.03,2.21-0.59,3.28c-0.5,0.87-1.29,1.4-2.18,1.4
			c-1.2,0-1.91-0.9-1.91-2.24c0-2.63,2.4-3.11,4.68-3.11V31.605z"/>
	</g>
</g>
</svg>
