<?xml version="1.0" encoding="utf-8"?>
<!-- Generator: Adobe Illustrator 16.0.4, SVG Export Plug-In . SVG Version: 6.00 Build 0)  -->
<!DOCTYPE svg PUBLIC "-//W3C//DTD SVG 1.0//EN" "http://www.w3.org/TR/2001/REC-SVG-20010904/DTD/svg10.dtd">
<svg version="1.0" id="Layer_1" xmlns="http://www.w3.org/2000/svg" xmlns:xlink="http://www.w3.org/1999/xlink" x="0px" y="0px"
	 width="82.25px" height="75.125px" viewBox="0 0 82.25 75.125" enable-background="new 0 0 82.25 75.125" xml:space="preserve">
<g>
	<path fill="#FFFFFF" d="M64.58,54.45c9.2,0,16.67-7.45,16.67-16.62c0-6.82-4.13-12.67-10-15.23c-0.17-11.81-9.8-21.35-21.67-21.35
		c-9.3,0-17.2,5.85-20.3,14.06c-1.8-2.45-4.73-4.09-8.03-4.09c-5.53,0-10,4.46-10,9.98c0,0.47,0.07,0.9,0.13,1.33
		c-5.96,2.53-10.13,8.41-10.13,15.3c0,9.17,7.47,16.62,16.67,16.62"/>
	<polygon stroke="#FFFFFF" stroke-width="2" stroke-linecap="round" stroke-linejoin="round" stroke-miterlimit="10" points="
		41.66,73.25 61.65,47.33 49,47.33 49,23.65 34.3,23.65 34.3,47.33 21.65,47.33 	"/>
</g>
</svg>
